<?xml version="1.0" encoding="utf-8"?>
<!-- Generator: Adobe Illustrator 17.0.0, SVG Export Plug-In . SVG Version: 6.00 Build 0)  -->
<!DOCTYPE svg PUBLIC "-//W3C//DTD SVG 1.1//EN" "http://www.w3.org/Graphics/SVG/1.1/DTD/svg11.dtd" [
	<!ENTITY ns_extend "http://ns.adobe.com/Extensibility/1.0/">
	<!ENTITY ns_ai "http://ns.adobe.com/AdobeIllustrator/10.0/">
	<!ENTITY ns_graphs "http://ns.adobe.com/Graphs/1.0/">
	<!ENTITY ns_vars "http://ns.adobe.com/Variables/1.0/">
	<!ENTITY ns_imrep "http://ns.adobe.com/ImageReplacement/1.0/">
	<!ENTITY ns_sfw "http://ns.adobe.com/SaveForWeb/1.0/">
	<!ENTITY ns_custom "http://ns.adobe.com/GenericCustomNamespace/1.0/">
	<!ENTITY ns_adobe_xpath "http://ns.adobe.com/XPath/1.0/">
]>
<svg version="1.1" id="Layer_1" xmlns:x="&ns_extend;" xmlns:i="&ns_ai;" xmlns:graph="&ns_graphs;"
	 xmlns="http://www.w3.org/2000/svg" xmlns:xlink="http://www.w3.org/1999/xlink" x="0px" y="0px" width="622.218px"
	 height="223.006px" viewBox="0 0 622.218 223.006" style="enable-background:new 0 0 622.218 223.006;" xml:space="preserve">
<metadata>
	<sfw  xmlns="&ns_sfw;">
		<slices></slices>
		<sliceSourceBounds  width="622.218" height="223.006" x="168.281" y="1816.16" bottomLeftOrigin="true"></sliceSourceBounds>
	</sfw>
</metadata>
<linearGradient id="SVGID_1_" gradientUnits="userSpaceOnUse" x1="0" y1="111.5032" x2="622.2183" y2="111.5032">
	<stop  offset="0" style="stop-color:#FFB88C"/>
	<stop  offset="1" style="stop-color:#DE6262"/>
</linearGradient>
<path style="fill:url(#SVGID_1_);" d="M0.576,103.966h11.088L38.735,7.2h-12.96l0.576-2.304h42.623
	c15.12,0,27.936,6.048,27.936,22.751c0,23.04-22.175,31.68-40.607,31.68H38.735l-12.528,44.639h13.968l-0.432,2.304H0L0.576,103.966
	z M39.312,57.023h14.688c20.736,0,27.359-20.448,27.359-33.839c0-11.375-4.32-15.984-15.839-15.984h-12.24L39.312,57.023z
	 M78.625,103.966h3.456c2.016,0,4.751-0.288,7.488-4.608L152.352,0h2.016l3.168,103.966h8.64l-0.432,2.304h-35.279l0.576-2.304
	h12.528l-1.008-33.983h-31.391L93.457,98.494c-1.296,1.872-1.728,2.88-1.728,3.6c0,1.152,1.44,1.872,6.48,1.872h4.464l-0.576,2.304
	H78.193L78.625,103.966z M141.696,22.032h-0.288l-28.511,45.647h29.663L141.696,22.032z M187.056,103.966H198L225.072,7.2h-8.928
	c-20.879,0-31.103,24.336-32.687,31.248h-2.304l10.08-33.551h85.246l-9.504,33.551h-2.304c1.152-4.608,2.304-9.36,2.304-14.112
	c0-12.815-6.479-17.136-18.432-17.136h-8.928l-27.359,96.767h12.384l-0.576,2.304H186.48L187.056,103.966z M259.344,103.966h11.088
	L297.503,7.2h-12.96l0.576-2.304h44.639c17.855,0,22.607,12.528,22.607,19.728c0,19.008-18,27.503-32.543,29.808v0.288
	c8.784,1.152,15.84,7.919,15.84,16.848c0,8.64-4.752,22.751-4.752,28.367c0,1.584,0.432,3.744,3.6,3.744
	c6.192,0,8.064-4.464,9.504-6.048l2.016,1.008c-1.872,2.736-5.904,8.496-13.392,8.496c-11.088,0-14.688-8.928-14.688-13.967
	c0-4.176,5.616-24.912,5.616-29.231c0-6.192-4.176-8.64-10.224-8.64h-14.688l-13.68,48.671h12.528l-0.576,2.304h-38.159
	L259.344,103.966z M299.231,52.991h16.56c14.688,0,22.751-20.448,22.751-34.271c0-5.76-2.304-11.52-12.384-11.52h-14.111
	L299.231,52.991z M347.327,103.966h11.088L385.486,7.2h-12.96l0.576-2.304h39.455L411.981,7.2h-11.952l-27.071,96.767h12.528
	l-0.576,2.304H346.75L347.327,103.966z M494.204,43.055l-2.304-0.576c1.296-4.32,1.872-8.928,1.872-13.392
	c0-13.536-12.384-24.191-25.632-24.191c-29.375,0-43.199,52.703-43.199,73.294c0,11.952,4.896,28.08,24.335,28.08
	c23.327,0,34.127-20.304,37.295-25.487l2.304,1.152c-2.592,4.752-14.832,26.639-40.319,26.639
	c-20.735,0-38.303-16.416-38.303-40.895c0-39.455,32.543-65.086,58.751-65.086c14.688,0,20.735,10.224,25.487,10.224
	c4.032,0,4.176-3.456,5.184-5.328l2.304,0.432L494.204,43.055z M491.325,103.966h11.088L529.484,7.2h-12.96l0.576-2.304h39.455
	L555.979,7.2h-11.952l-27.071,96.767h12.528l-0.576,2.304h-38.159L491.325,103.966z M534.668,103.966h3.456
	c2.016,0,4.751-0.288,7.488-4.608L608.395,0h2.016l3.168,103.966h8.64l-0.432,2.304h-35.279l0.576-2.304h12.528l-1.008-33.983
	h-31.391L549.5,98.494c-1.296,1.872-1.728,2.88-1.728,3.6c0,1.152,1.44,1.872,6.48,1.872h4.464l-0.576,2.304h-23.904
	L534.668,103.966z M597.739,22.032h-0.288l-28.511,45.647h29.663L597.739,22.032z M162.668,179.329l-1.536-0.384
	c0.864-2.88,1.248-5.952,1.248-8.927c0-9.023-8.255-16.127-17.086-16.127c-19.583,0-28.798,35.133-28.798,48.86
	c0,7.968,3.264,18.719,16.223,18.719c15.551,0,22.75-13.535,24.862-16.991l1.536,0.768c-1.728,3.167-9.887,17.759-26.878,17.759
	c-13.823,0-25.534-10.943-25.534-27.262c0-26.302,21.694-43.389,39.165-43.389c9.792,0,13.823,6.816,16.991,6.816
	c2.688,0,2.784-2.304,3.456-3.552l1.536,0.288L162.668,179.329z M231.115,180.193c0,17.279-15.743,42.813-36.189,42.813
	c-12.095,0-24.19-8.448-24.19-27.838c0-15.935,14.783-42.813,38.109-42.813C218.348,152.355,231.115,160.803,231.115,180.193z
	 M213.933,205.343c5.184-12.095,8.543-28.798,8.543-35.613c0-13.823-8.255-15.839-13.727-15.839
	c-11.327,0-17.087,8.352-21.406,18.719c-4.224,9.983-7.392,25.63-7.392,32.733c0,13.055,7.392,16.127,14.687,16.127
	C203.277,221.47,209.421,215.807,213.933,205.343z M311.081,155.427c-4.512,0-6.911,0.096-8.159,4.416l-13.343,45.885
	c-2.688,9.215-10.463,17.279-26.494,17.279c-10.847,0-22.366-4.704-22.366-15.071c0-3.359,4.992-21.406,5.664-23.806l7.872-28.702
	h-8.64l0.384-1.536H272.3l-0.384,1.536h-7.967l-8.447,29.47c-3.264,11.423-6.144,21.982-6.144,25.438
	c0,7.583,6.719,11.135,14.111,11.135c13.151,0,21.311-5.28,24.574-16.319l10.943-37.437c0.672-2.208,2.304-8.063,2.304-9.695
	c0-1.824-0.672-2.592-6.72-2.592h-2.112l0.384-1.536h18.623L311.081,155.427z M315.212,219.934h7.295l18.047-64.507h-5.952
	c-13.919,0-20.734,16.223-21.791,20.83h-1.536l6.719-22.366h56.828l-6.335,22.366h-1.536c0.768-3.072,1.536-6.239,1.536-9.407
	c0-8.543-4.32-11.423-12.287-11.423h-5.952l-18.239,64.507h8.255l-0.384,1.536h-25.054L315.212,219.934z M363.405,219.934h7.392
	l18.047-64.507h-8.64l0.384-1.536h26.302l-0.384,1.536h-7.968l-18.046,64.507h8.352l-0.384,1.536h-25.438L363.405,219.934z
	 M395.372,219.934h2.592c4.992,0,5.664-2.304,9.6-16.415l13.535-48.092h-8.735l0.288-1.536h18.623l20.159,56.348h0.192
	l12.575-43.677c0.96-3.264,2.016-7.007,2.016-8.639c0-1.92-1.152-2.4-7.583-2.496l0.384-1.536h17.471l-0.384,1.536h-0.96
	c-5.28,0-6.336,1.056-7.488,4.991l-17.279,60.284l-4.319,1.344l-23.614-65.275h-0.192l-15.263,55.196
	c-0.672,2.4-1.248,4.032-1.248,4.896c0,1.056,0.192,3.071,4.896,3.071h2.399l-0.384,1.536h-17.663L395.372,219.934z
	 M460.647,135.652c-1.44,4.992-4.608,9.792-10.367,9.792c-2.592,0-4.896-1.056-7.104-2.304c-1.728-0.96-4.032-2.304-6.048-2.304
	c-2.688,0-4.511,2.112-5.279,4.608h-2.496c1.44-4.992,4.608-9.792,10.367-9.792c2.592,0,4.896,1.056,7.104,2.304
	c1.728,0.96,4.032,2.304,6.048,2.304c2.688,0,4.512-2.112,5.279-4.608H460.647z M535.045,180.193
	c0,17.279-15.743,42.813-36.189,42.813c-12.095,0-24.19-8.448-24.19-27.838c0-15.935,14.783-42.813,38.109-42.813
	C522.278,152.355,535.045,160.803,535.045,180.193z M517.863,205.343c5.184-12.095,8.543-28.798,8.543-35.613
	c0-13.823-8.255-15.839-13.727-15.839c-11.327,0-17.087,8.352-21.406,18.719c-4.224,9.983-7.392,25.63-7.392,32.733
	c0,13.055,7.392,16.127,14.687,16.127C507.208,221.47,513.351,215.807,517.863,205.343z"/>
</svg>
